<svg xmlns="http://www.w3.org/2000/svg" width="430" height="90" fill="#8c1515" xmlns:v="https://vecta.io/nano"><path d="M235.078 9.346c3.481-6.028 10.493-9.207 17.285-9.267 6.199-.401 13.21.631 17.553 5.531l-6.526 8.795c-2.463-2.827-4.489-6.806-8.467-7.606-3.918-1.213-8.843.825-9.862 5.022-1.65 6.66-.655 13.622-.898 20.415h12.725v7.582h-12.737l-.012 34.28c-.049 3.239.473 6.441 1.08 9.619 2.911 1.346 6.053 2.037 9.267 2.099l-.037 3.178c-10.407-.679-20.828-.885-31.223-.012l.024-2.668c3.287-.582 7.363-2.111 7.497-6.065 1.274-13.428.412-26.954.667-40.43-2.535 0-5.071 0-7.606-.012l.048-3.433c2.572-1.189 5.083-2.511 7.557-3.87 0-7.788-.461-16.207 3.664-23.157h.001zM422.696.066c-6.733 1.552-13.549 2.862-20.464 3.166l-.268 2.523c2.572.776 6.77.571 6.952 4.161 1.031 7.279.303 14.665.509 21.991-9.91-1.698-20.986-1.589-29.415 4.586-9.232 6.465-12.397 18.524-11.476 29.271.522 8.334 4.694 16.885 12.251 20.949 9 4.949 20.513 3.931 28.943-1.771l.11 5.058c6.525-1.662 13.198-2.596 19.906-2.984v-2.912c-9.507-1.619-6.878-6.019-7.545-13.5l.497-70.536V.066zm-24.663 37.91c4.014-.043 8.097 1.239 11.392 3.478l.024 37.955c-7.059 3.239-16.606 3.008-22.137-2.984-4.743-5.071-5.544-12.494-5.119-19.117.473-6.029 1.735-12.919 6.999-16.656 2.638-1.809 5.719-2.643 8.841-2.676zM22.54 7.793c7.994-.485 16.012.036 23.921 1.152-.473 5.629-.425 11.294.012 16.922l-3.057.012c-.607-3.518-1.238-7.788-4.986-9.353-5.556-2.341-12.058-2.572-17.82-.897-7.533 2.231-8.77 13.319-3.166 18.159 7.012 6.138 15.6 10.153 22.781 16.109 11.244 8.952 9.776 29.792-3.566 36.063-11.233 5.192-24.418 3.882-36.015.619C.716 81.002.51 75.425.255 69.856l3.372-.061c.594 3.506 1.14 7.812 4.694 9.619 6.356 3.566 14.556 3.857 21.156.789 8.236-4.549 6.72-17.698-.983-22.126-6.683-5.147-14.362-8.952-20.536-14.763-6.841-6.357-7.69-17.493-3.286-25.438C8.274 11.544 15.54 8.378 22.54 7.796v-.003zm47.441 11.925l2.535.133-.012 12.689h19.409v7.278H72.504l.109 30.593c.267 3.882.376 8.722 4.003 11.099 4.573 2.717 10.044 1.019 14.617-.764 1.407 3.445-2.171 5.374-4.658 6.805-5.835 2.827-12.955 3.13-18.984.776-5.155-1.929-7.642-7.569-7.909-12.737-.619-11.913 0-23.848.097-35.772h-7.581l-.037-2.378c8.237-3.106 13.792-10.202 17.82-17.722l.001-.001zm51.941 10.897c-8.746-.09-17.566 4.254-20.375 13.035l3.093 1.735c3.36-5.932 11.208-8.977 17.394-5.555 4.852 2.208 5.265 8.139 5.168 12.785-7.63 2.451-15.527 4.38-22.732 7.971-8.637 4.561-9.753 17.491-3.566 24.491 7.29 6.683 19.457 5.604 26.662-.717 2.195 4.343 7.387 6.005 11.911 4.731 3.943-.764 6.55-4.051 9.135-6.829l-1.808-2.063c-1.625.413-3.457 1.699-5.046.449-2.062-1.419-1.807-4.27-1.953-6.465.146-9.413.667-18.85.17-28.275-.243-4.876-2.426-9.862-6.745-12.422-3.373-1.872-7.334-2.829-11.308-2.87h0zm5.146 29.351l.049 19.032c-4.063 1.807-8.892 3.481-13.173 1.407-5.241-2.79-5.022-11.135-.692-14.641 4.161-2.863 9.098-4.209 13.816-5.798zm162.038-29.113c-6.393.073-12.992 1.662-17.991 5.822-7.435 6.017-10.661 15.964-10.334 25.304-.036 7.994 2.45 16.522 8.746 21.835 7.436 6.477 18.244 7.12 27.499 5.192 9.765-2.147 17.104-10.699 19.178-20.282 2.232-9.947 1.298-21.507-5.543-29.537-5.265-6.162-13.695-8.492-21.555-8.334zm.085 6.789c3.435.066 6.835 1.478 9.037 4.213 3.99 4.888 5.058 11.463 5.349 17.601.049 6.683-.801 13.9-5.01 19.359-4.137 5.349-13.051 5.944-17.819 1.128-3.651-3.384-5.01-8.418-5.835-13.149-.861-6.284-.642-12.823 1.335-18.875 1.383-4.052 4.075-8.152 8.345-9.535 1.468-.527 3.037-.774 4.598-.744v.001zM153.173 34.71c6.782-.109 13.66-.813 19.918-3.615a90.53 90.53 0 0 1 .522 4.865c7.193-4.707 16.485-6.538 24.722-3.627 5.895 1.977 10.02 7.752 10.541 13.865 1.213 11.633-.546 23.424 1.007 35.033.169 3.651 4.1 4.476 6.951 5.07l.024 2.717c-9.631-.764-28.919-.036-28.919-.036l-.036-2.751s6.957-1.956 7.4-3.957c1.589-8.636 1.212-17.565 1.128-26.335-.316-5.24-.182-11.79-5.192-14.981-5.374-3.093-11.961-1.662-17.456.34v34.075c.158 3.032-.06 6.489 1.917 9.012 1.662 1.152 3.749 1.359 5.652 1.892l.025 2.741c-9.498-.619-19.02-1.019-28.506-.012l.024-2.693c2.887-.667 6.696-1.577 7.242-5.07 1.322-8.37.303-16.922.618-25.365-.121-4.816.412-9.693-.437-14.447-.667-3.251-4.634-3.069-7.133-3.712l-.012-3.008zm169.507-.255c6.793-.097 13.585-1.019 20.039-3.19l.182 4.998c6.526-5.253 16.364-6.587 23.314-1.383l-7.247 11.062c-3.385-5.216-10.25-6.477-15.672-3.821l.036 34.438c.279 2.56-.122 5.883 2.28 7.557 2.317 1.358 5.131 1.286 7.715 1.698l-.012 3.178c-10.42-.703-20.864-.849-31.284-.024l-.002-3.154c3.358-.573 6.855-1.735 7.365-3.737 1.443-4.936.74-10.165.886-15.248-.146-8.091.29-16.194-.195-24.273-.036-3.93-4.488-4.282-7.375-4.852l-.024-3.251-.006.001z"/></svg>